<svg width="13" height="13" viewBox="0 0 13 13" fill="none" xmlns="http://www.w3.org/2000/svg">
<path id="Arrow 1" d="M0.540381 11.1999C0.28654 11.4537 0.28654 11.8653 0.540381 12.1191C0.794221 12.373 1.20578 12.373 1.45962 12.1191L0.540381 11.1999ZM12.2201 1.08945C12.2201 0.730465 11.9291 0.43945 11.5701 0.439449L5.72007 0.43945C5.36108 0.439449 5.07007 0.730464 5.07007 1.08945C5.07007 1.44843 5.36108 1.73945 5.72007 1.73945H10.9201V6.93945C10.9201 7.29843 11.2111 7.58945 11.5701 7.58945C11.9291 7.58945 12.2201 7.29843 12.2201 6.93945L12.2201 1.08945ZM1.45962 12.1191L12.0297 1.54907L11.1104 0.62983L0.540381 11.1999L1.45962 12.1191Z" fill="url(#paint0_linear_78_522)"/>
<defs>
<linearGradient id="paint0_linear_78_522" x1="-0.413372" y1="13.1247" x2="13.8285" y2="-0.584576" gradientUnits="userSpaceOnUse">
<stop stop-color="#EF233C"/>
<stop offset="1" stop-color="white"/>
</linearGradient>
</defs>
</svg>
