<svg xmlns="http://www.w3.org/2000/svg" width="16" height="16" viewBox="0 0 16 16" fill="none">
    <path d="M7.99988 14.2231C11.4298 14.2231 14.2203 11.4326 14.2203 8.00268C14.2203 4.57275 11.4298 1.78231 7.99988 1.78231C4.56997 1.78231 1.77951 4.57275 1.77951 8.00268C1.77951 11.4326 4.56998 14.2231 7.99988 14.2231ZM7.99988 15.0006C4.14133 15.0006 1.00195 11.8613 1.00195 8.00268C1.00195 4.14411 4.14133 1.00475 7.99988 1.00475C11.8584 1.00475 14.9978 4.14411 14.9978 8.00268C14.9978 11.8613 11.8584 15.0006 7.99988 15.0006Z" fill="#EDF2F4"/>
    <path d="M4.40869 8.00272C4.40869 7.81534 4.48313 7.63563 4.61562 7.50314C4.74812 7.37064 4.92783 7.2962 5.1152 7.2962C5.30258 7.2962 5.48229 7.37064 5.61478 7.50314C5.74728 7.63563 5.82172 7.81534 5.82172 8.00272C5.82172 8.19009 5.74728 8.3698 5.61478 8.5023C5.48229 8.63479 5.30258 8.70923 5.1152 8.70923C4.92783 8.70923 4.74812 8.63479 4.61562 8.5023C4.48313 8.3698 4.40869 8.19009 4.40869 8.00272Z" fill="#EDF2F4"/>
    <path d="M7.29346 8.00272C7.29346 7.81534 7.36789 7.63563 7.50039 7.50314C7.63289 7.37064 7.81259 7.2962 7.99997 7.2962C8.18735 7.2962 8.36705 7.37064 8.49955 7.50314C8.63205 7.63563 8.70648 7.81534 8.70648 8.00272C8.70648 8.19009 8.63205 8.3698 8.49955 8.5023C8.36705 8.63479 8.18735 8.70923 7.99997 8.70923C7.81259 8.70923 7.63289 8.63479 7.50039 8.5023C7.36789 8.3698 7.29346 8.19009 7.29346 8.00272Z" fill="#EDF2F4"/>
    <path d="M10.1782 8.00272C10.1782 7.81534 10.2527 7.63563 10.3852 7.50314C10.5177 7.37064 10.6974 7.2962 10.8847 7.2962C11.0721 7.2962 11.2518 7.37064 11.3843 7.50314C11.5168 7.63563 11.5912 7.81534 11.5912 8.00272C11.5912 8.19009 11.5168 8.3698 11.3843 8.5023C11.2518 8.63479 11.0721 8.70923 10.8847 8.70923C10.6974 8.70923 10.5177 8.63479 10.3852 8.5023C10.2527 8.3698 10.1782 8.19009 10.1782 8.00272Z" fill="#EDF2F4"/>
</svg>