<svg width="16" height="11" viewBox="0 0 16 11" fill="none" xmlns="http://www.w3.org/2000/svg">
<g id="Group 5399">
<path id="Vector" d="M11.2083 4.375C11.7606 4.375 12.2083 4.82272 12.2083 5.375C12.2083 5.92729 11.7606 6.375 11.2083 6.375L11.2083 4.375ZM11.2083 6.375L1 6.375L1 4.375L11.2083 4.375L11.2083 6.375Z" fill="black"/>
<path id="Vecror" d="M4.64583 9.02075L1 5.37492L4.64583 1.72909" stroke="black" strokeWidth="2" stroke-linecap="round" strokeLinejoin="round"/>
<path id="Vector_2" d="M6.25567 8.50523C6.54043 8.78999 6.54043 9.25167 6.25567 9.53643C5.97091 9.82119 5.50923 9.82119 5.22447 9.53643L1.57864 5.8906C1.29388 5.60584 1.29388 5.14416 1.57864 4.8594L5.22447 1.21357C5.50923 0.92881 5.97091 0.92881 6.25567 1.21357C6.54043 1.49832 6.54043 1.96001 6.25567 2.24477L3.8546 4.64583L15.1151 4.64583C15.5178 4.64583 15.8442 4.97229 15.8442 5.375C15.8442 5.77771 15.5178 6.10417 15.1151 6.10417L3.8546 6.10416L6.25567 8.50523Z" fill="#EAECEF"/>
</g>
</svg>
