<svg width="13" height="13" viewBox="0 0 13 13" fill="none" xmlns="http://www.w3.org/2000/svg">
<path id="Arrow 1" d="M12.0294 1.54907C12.2833 1.29523 12.2833 0.883668 12.0294 0.629828C11.7756 0.375987 11.364 0.375987 11.1102 0.629828L12.0294 1.54907ZM0.349758 11.6595C0.349758 12.0185 0.640773 12.3095 0.999758 12.3095L6.84976 12.3095C7.20874 12.3095 7.49976 12.0185 7.49976 11.6595C7.49976 11.3005 7.20874 11.0095 6.84976 11.0095H1.64976V5.80951C1.64976 5.45053 1.35874 5.15951 0.999759 5.15951C0.640773 5.15951 0.349758 5.45053 0.349758 5.80951L0.349758 11.6595ZM11.1102 0.629828L0.540139 11.1999L1.45938 12.1191L12.0294 1.54907L11.1102 0.629828Z" fill="url(#paint0_linear_128_946)"/>
<defs>
<linearGradient id="paint0_linear_128_946" x1="12.9832" y1="-0.375757" x2="-1.25872" y2="13.3335" gradientUnits="userSpaceOnUse">
<stop stop-color="#EF233C"/>
<stop offset="1" stop-color="white"/>
</linearGradient>
</defs>
</svg>
