<svg width="12" height="13" viewBox="0 0 12 13" fill="none" xmlns="http://www.w3.org/2000/svg">
<g id="ph:chart-line-up-duotone">
<path id="Vector" d="M10.875 9.97784C10.875 10.0773 10.8355 10.1727 10.7652 10.243C10.6948 10.3133 10.5995 10.3528 10.5 10.3528H1.5C1.40054 10.3528 1.30516 10.3133 1.23483 10.243C1.16451 10.1727 1.125 10.0773 1.125 9.97784V2.47784C1.125 2.37839 1.16451 2.28301 1.23483 2.21268C1.30516 2.14235 1.40054 2.10284 1.5 2.10284C1.59946 2.10284 1.69484 2.14235 1.76516 2.21268C1.83549 2.28301 1.875 2.37839 1.875 2.47784V7.57316L4.23281 5.21066C4.30391 5.14024 4.39993 5.10073 4.5 5.10073C4.60007 5.10073 4.69609 5.14024 4.76719 5.21066L6 6.44816L8.84531 3.60284H7.875C7.77554 3.60284 7.68016 3.56334 7.60983 3.49301C7.53951 3.42268 7.5 3.3273 7.5 3.22784C7.5 3.12839 7.53951 3.03301 7.60983 2.96268C7.68016 2.89235 7.77554 2.85284 7.875 2.85284H9.75C9.84946 2.85284 9.94484 2.89235 10.0152 2.96268C10.0855 3.03301 10.125 3.12839 10.125 3.22784V5.10284C10.125 5.2023 10.0855 5.29768 10.0152 5.36801C9.94484 5.43834 9.84946 5.47784 9.75 5.47784C9.65054 5.47784 9.55516 5.43834 9.48483 5.36801C9.41451 5.29768 9.375 5.2023 9.375 5.10284V4.13253L6.26719 7.24503C6.19609 7.31545 6.10007 7.35495 6 7.35495C5.89993 7.35495 5.80391 7.31545 5.73281 7.24503L4.5 6.00753L1.875 8.63253V9.60284H10.5C10.5995 9.60284 10.6948 9.64235 10.7652 9.71268C10.8355 9.78301 10.875 9.87839 10.875 9.97784Z" fill="#8D99AE"/>
</g>
</svg>
