<svg width="12" height="13" viewBox="0 0 12 13" fill="none" xmlns="http://www.w3.org/2000/svg">
<g id="clock-light" clip-path="url(#clip0_12_883)">
<g id="Vector">
<path d="M8.25 6.88416C8.52614 6.88416 8.75 6.6603 8.75 6.38416C8.75 6.10801 8.52614 5.88416 8.25 5.88416H6.5V3.13416C6.5 2.85801 6.27614 2.63416 6 2.63416C5.72386 2.63416 5.5 2.85801 5.5 3.13416V6.38416C5.5 6.6603 5.72386 6.88416 6 6.88416H8.25Z" fill="#8D99AE"/>
<path fill-rule="evenodd" clip-rule="evenodd" d="M6 0.884155C2.96243 0.884155 0.5 3.34659 0.5 6.38416C0.5 9.42172 2.96243 11.8842 6 11.8842C9.03757 11.8842 11.5 9.42172 11.5 6.38416C11.5 3.34659 9.03757 0.884155 6 0.884155ZM1.5 6.38416C1.5 3.89887 3.51472 1.88416 6 1.88416C8.48528 1.88416 10.5 3.89887 10.5 6.38416C10.5 8.86944 8.48528 10.8842 6 10.8842C3.51472 10.8842 1.5 8.86944 1.5 6.38416Z" fill="#8D99AE"/>
</g>
</g>
<defs>
<clipPath id="clip0_12_883">
<rect width="12" height="12" fill="white" transform="translate(0 0.384155)"/>
</clipPath>
</defs>
</svg>
