<svg xmlns="http://www.w3.org/2000/svg" width="24" height="24" viewBox="0 0 24 24" fill="none">
    <g clip-path="url(#clip0_234_431)">
        <path d="M0 12C0 8.8174 1.26428 5.76515 3.51472 3.51472C5.76516 1.26428 8.8174 0 12 0C15.1826 0 18.2348 1.26428 20.4853 3.51472C22.7357 5.76515 24 8.8174 24 12C24 15.1826 22.7357 18.2348 20.4853 20.4853C18.2348 22.7357 15.1826 24 12 24C8.8174 24 5.76516 22.7357 3.51472 20.4853C1.26428 18.2348 0 15.1826 0 12H0Z" fill="#607AE3"/>
        <path d="M11.9998 20.624L11.8838 20.232V8.82802L11.9998 8.71202L17.2918 11.84L11.9998 20.624Z" fill="#BCC5EE"/>
        <path d="M12.0001 20.624L6.7041 11.84L12.0001 8.71202V14.248V20.624Z" fill="#F7F7F7"/>
        <path d="M12.0001 7.70806L11.9321 7.62806V3.56807L12.0001 3.37606L17.2961 10.8361L12.0001 7.70806Z" fill="#BCC5EE"/>
        <path d="M12.0001 3.37606V7.70806L6.7041 10.8361L12.0001 3.37606Z" fill="#F7F7F7"/>
        <path d="M12 8.71205L17.292 11.84L12 14.248V8.71205Z" fill="#7D93E7"/>
        <path d="M6.7041 11.84L12.0001 8.71205V14.248L6.7041 11.84Z" fill="#BCC5EE"/>
    </g>
    <defs>
        <clipPath id="clip0_234_431">
            <rect width="24" height="24" fill="white" transform="matrix(1 0 0 -1 0 24)"/>
        </clipPath>
    </defs>
</svg>