<svg width="16" height="16" viewBox="0 0 16 16" fill="none" xmlns="http://www.w3.org/2000/svg">
<g id="&#233;&#148;&#153;&#232;&#175;&#175;">
<path id="&#232;&#183;&#175;&#229;&#190;&#132;" d="M8 1C11.866 1 15 4.13401 15 8C15 11.866 11.866 15 8 15C4.13401 15 1 11.866 1 8C1 4.13401 4.13401 1 8 1Z" fill="#F53F3F"/>
<path id="&#229;&#189;&#162;&#231;&#138;&#182;&#231;&#187;&#147;&#229;&#144;&#136;" fill-rule="evenodd" clip-rule="evenodd" d="M10.1638 5.35715L10.6587 5.85212C10.8149 6.00833 10.8149 6.2616 10.6587 6.41781L9.06728 8.00899L10.6587 9.60037C10.8149 9.75658 10.8149 10.0098 10.6587 10.1661L10.1638 10.661C10.0076 10.8172 9.75429 10.8172 9.59808 10.661L8.00628 9.06899L6.4161 10.6604C6.25989 10.8167 6.00662 10.8167 5.85041 10.6604L5.35544 10.1655C5.19923 10.0093 5.19923 9.756 5.35544 9.59979L6.94528 8.00899L5.35544 6.41839C5.19923 6.26218 5.19923 6.00891 5.35544 5.8527L5.85041 5.35773C6.00662 5.20152 6.25989 5.20152 6.4161 5.35773L8.00628 6.94799L9.59808 5.35715C9.75429 5.20094 10.0076 5.20094 10.1638 5.35715Z" fill="white"/>
</g>
</svg>
