<svg width="16" height="17" viewBox="0 0 16 17" fill="none" xmlns="http://www.w3.org/2000/svg">
<g id="gas">
<path id="Vector" d="M2.6665 14.5V3.83333C2.6665 3.46667 2.79717 3.15289 3.0585 2.892C3.31984 2.63111 3.63362 2.50044 3.99984 2.5H7.99984C8.3665 2.5 8.6805 2.63067 8.94184 2.892C9.20317 3.15333 9.33362 3.46711 9.33317 3.83333V8.5H9.99984C10.3665 8.5 10.6805 8.63067 10.9418 8.892C11.2032 9.15333 11.3336 9.46711 11.3332 9.83333V12.8333C11.3332 13.0222 11.3972 13.1807 11.5252 13.3087C11.6532 13.4367 11.8114 13.5004 11.9998 13.5C12.1887 13.5 12.3472 13.4362 12.4752 13.3087C12.6032 13.1811 12.6669 13.0227 12.6665 12.8333V8.03333C12.5665 8.08889 12.4609 8.12511 12.3498 8.142C12.2387 8.15889 12.1221 8.16711 11.9998 8.16667C11.5332 8.16667 11.1387 8.00556 10.8165 7.68333C10.4943 7.36111 10.3332 6.96667 10.3332 6.5C10.3332 6.14444 10.4305 5.82489 10.6252 5.54133C10.8198 5.25778 11.0781 5.05511 11.3998 4.93333L9.99984 3.53333L10.6998 2.83333L13.1665 5.23333C13.3332 5.4 13.4583 5.59444 13.5418 5.81667C13.6254 6.03889 13.6669 6.26667 13.6665 6.5V12.8333C13.6665 13.3 13.5054 13.6944 13.1832 14.0167C12.8609 14.3389 12.4665 14.5 11.9998 14.5C11.5332 14.5 11.1387 14.3389 10.8165 14.0167C10.4943 13.6944 10.3332 13.3 10.3332 12.8333V9.5H9.33317V14.5H2.6665ZM3.99984 7.16667H7.99984V3.83333H3.99984V7.16667ZM11.9998 7.16667C12.1887 7.16667 12.3472 7.10289 12.4752 6.97533C12.6032 6.84778 12.6669 6.68933 12.6665 6.5C12.6665 6.31111 12.6025 6.15267 12.4745 6.02467C12.3465 5.89667 12.1883 5.83289 11.9998 5.83333C11.8109 5.83333 11.6525 5.89733 11.5245 6.02533C11.3965 6.15333 11.3327 6.31156 11.3332 6.5C11.3332 6.68889 11.3972 6.84733 11.5252 6.97533C11.6532 7.10333 11.8114 7.16711 11.9998 7.16667ZM3.99984 13.1667H7.99984V8.5H3.99984V13.1667Z" fill="#EDF2F4"/>
</g>
</svg>
