<svg width="15" height="16" viewBox="0 0 15 16" fill="none" xmlns="http://www.w3.org/2000/svg">
<g id="info-circle-light" clip-path="url(#clip0_17_1986)">
<g id="Vector">
<path d="M7.5 11.5992C7.84518 11.5992 8.125 11.3194 8.125 10.9742L8.125 6.59918C8.125 6.254 7.84518 5.97418 7.5 5.97418C7.15482 5.97418 6.875 6.254 6.875 6.59918L6.875 10.9742C6.875 11.3194 7.15482 11.5992 7.5 11.5992Z" fill="#EDF2F4"/>
<path d="M7.5 5.34918C8.01777 5.34918 8.4375 4.92945 8.4375 4.41168C8.4375 3.89392 8.01777 3.47418 7.5 3.47418C6.98223 3.47418 6.5625 3.89392 6.5625 4.41168C6.5625 4.92945 6.98223 5.34918 7.5 5.34918Z" fill="#EDF2F4"/>
<path fill-rule="evenodd" clip-rule="evenodd" d="M0.625 7.53668C0.625 11.3336 3.70304 14.4117 7.5 14.4117C11.297 14.4117 14.375 11.3336 14.375 7.53668C14.375 3.73972 11.297 0.661682 7.5 0.661682C3.70304 0.661682 0.625 3.73972 0.625 7.53668ZM7.5 13.1617C4.3934 13.1617 1.875 10.6433 1.875 7.53668C1.875 4.43008 4.3934 1.91168 7.5 1.91168C10.6066 1.91168 13.125 4.43008 13.125 7.53668C13.125 10.6433 10.6066 13.1617 7.5 13.1617Z" fill="#EDF2F4"/>
</g>
</g>
<defs>
<clipPath id="clip0_17_1986">
<rect width="15" height="15" fill="white" transform="translate(0 0.0366821)"/>
</clipPath>
</defs>
</svg>
