<svg width="16" height="16" viewBox="0 0 16 16" fill="none" xmlns="http://www.w3.org/2000/svg">
<g id="loading">
<path id="&#229;&#189;&#162;&#231;&#138;&#182;&#231;&#187;&#147;&#229;&#144;&#136;" fill-rule="evenodd" clip-rule="evenodd" d="M8 1C11.866 1 15 4.13401 15 8C15 11.866 11.866 15 8 15C4.13401 15 1 11.866 1 8C1 4.13401 4.13401 1 8 1ZM8 3.33333C5.42267 3.33333 3.33333 5.42267 3.33333 8C3.33333 10.5773 5.42267 12.6667 8 12.6667C10.5773 12.6667 12.6667 10.5773 12.6667 8C12.6667 5.42267 10.5773 3.33333 8 3.33333Z" fill="url(#paint0_angular_145_1816)"/>
<path id="&#230;&#164;&#173;&#229;&#156;&#134;&#229;&#189;&#162;" d="M13.8445 9.15595C14.4823 9.15595 14.9995 8.63884 14.9995 8.00095C14.9995 7.36306 14.4823 6.84595 13.8445 6.84595C13.2066 6.84595 12.6895 7.36306 12.6895 8.00095C12.6895 8.63884 13.2066 9.15595 13.8445 9.15595Z" fill="#BC0219"/>
</g>
<defs>
<radialGradient id="paint0_angular_145_1816" cx="0" cy="0" r="1" gradientUnits="userSpaceOnUse" gradientTransform="translate(8 8) rotate(-23.9625) scale(6.8942 6.92085)">
<stop offset="0.921737" stop-color="#EF233C" stop-opacity="0"/>
<stop offset="0.944115" stop-color="#EF233C"/>
<stop offset="0.989583" stop-color="#EF233C"/>
</radialGradient>
</defs>
</svg>
