<svg width="24" height="22" viewBox="0 0 24 22" fill="none" xmlns="http://www.w3.org/2000/svg">
<path id="Union" fill-rule="evenodd" clip-rule="evenodd" d="M6.28566 2.16208H17.0288C17.4709 2.16208 17.8684 2.43121 18.0326 2.84163L21.0595 10.4089C21.1626 10.6667 21.1626 10.9542 21.0595 11.2119L18.0326 18.7792C17.8684 19.1896 17.4709 19.4587 17.0288 19.4587H6.25204C5.83031 19.4587 5.45106 19.202 5.29443 18.8104L2.25503 11.2119C2.15193 10.9542 2.15193 10.6667 2.25503 10.4089L5.28194 2.84163C5.44611 2.43121 5.84362 2.16208 6.28566 2.16208ZM3.2745 2.03866C3.76701 0.807379 4.95954 0 6.28566 0H17.0288C18.355 0 19.5475 0.807379 20.04 2.03866L23.0669 9.60595C23.3762 10.3791 23.3762 11.2417 23.0669 12.0149L20.04 19.5822C19.5475 20.8134 18.355 21.6208 17.0288 21.6208H6.25204C4.94622 21.6208 3.77196 20.8258 3.28699 19.6134L0.247584 12.0149C-0.0616946 11.2417 -0.0616947 10.3791 0.247584 9.60595L3.2745 2.03866ZM13.8183 10.811C13.8183 12.0051 12.8503 12.9731 11.6562 12.9731C10.4621 12.9731 9.49411 12.0051 9.49411 10.811C9.49411 9.61693 10.4621 8.64893 11.6562 8.64893C12.8503 8.64893 13.8183 9.61693 13.8183 10.811ZM15.9804 10.811C15.9804 13.1992 14.0444 15.1352 11.6562 15.1352C9.26802 15.1352 7.33203 13.1992 7.33203 10.811C7.33203 8.42284 9.26802 6.48685 11.6562 6.48685C14.0444 6.48685 15.9804 8.42284 15.9804 10.811Z" fill="#8D99AE"/>
</svg>
