<svg width="13" height="13" viewBox="0 0 13 13" fill="none" xmlns="http://www.w3.org/2000/svg">
<g id="speed" clip-path="url(#clip0_12_855)">
<g id="Group">
<path id="Vector" d="M6.5 3.8468C6.59946 3.8468 6.69484 3.88631 6.76517 3.95664C6.83549 4.02696 6.875 4.12235 6.875 4.2218V5.3468C6.875 5.44626 6.83549 5.54164 6.76517 5.61197C6.69484 5.68229 6.59946 5.7218 6.5 5.7218C6.40054 5.7218 6.30516 5.68229 6.23484 5.61197C6.16451 5.54164 6.125 5.44626 6.125 5.3468V4.2218C6.125 4.12235 6.16451 4.02696 6.23484 3.95664C6.30516 3.88631 6.40054 3.8468 6.5 3.8468ZM3.299 5.1458C3.36932 5.0755 3.46469 5.03601 3.56412 5.03601C3.66356 5.03601 3.75893 5.0755 3.82925 5.1458L4.5155 5.8313C4.55037 5.86617 4.57802 5.90756 4.59689 5.95311C4.61576 5.99867 4.62547 6.04749 4.62547 6.0968C4.62547 6.14611 4.61576 6.19493 4.59689 6.24049C4.57802 6.28604 4.55037 6.32744 4.5155 6.3623C4.48063 6.39717 4.43924 6.42482 4.39369 6.44369C4.34813 6.46256 4.29931 6.47228 4.25 6.47228C4.20069 6.47228 4.15187 6.46256 4.10631 6.44369C4.06076 6.42482 4.01937 6.39717 3.9845 6.3623L3.299 5.67605C3.2287 5.60573 3.18921 5.51036 3.18921 5.41093C3.18921 5.31149 3.2287 5.21612 3.299 5.1458ZM2 8.3468C2 8.24735 2.03951 8.15196 2.10984 8.08164C2.18016 8.01131 2.27554 7.9718 2.375 7.9718H3.5645C3.66396 7.9718 3.75934 8.01131 3.82966 8.08164C3.89999 8.15196 3.9395 8.24735 3.9395 8.3468C3.9395 8.44626 3.89999 8.54164 3.82966 8.61197C3.75934 8.68229 3.66396 8.7218 3.5645 8.7218H2.375C2.27554 8.7218 2.18016 8.68229 2.10984 8.61197C2.03951 8.54164 2 8.44626 2 8.3468ZM9.125 8.3468C9.125 8.24735 9.16451 8.15196 9.23483 8.08164C9.30516 8.01131 9.40054 7.9718 9.5 7.9718H10.625C10.7245 7.9718 10.8198 8.01131 10.8902 8.08164C10.9605 8.15196 11 8.24735 11 8.3468C11 8.44626 10.9605 8.54164 10.8902 8.61197C10.8198 8.68229 10.7245 8.7218 10.625 8.7218H9.5C9.40054 8.7218 9.30516 8.68229 9.23483 8.61197C9.16451 8.54164 9.125 8.44626 9.125 8.3468ZM9.6905 5.1623C9.63854 5.11062 9.56904 5.08038 9.4958 5.0776C9.42257 5.07482 9.35097 5.0997 9.29525 5.1473L6.16025 7.8293C6.08721 7.89084 6.02789 7.96703 5.98615 8.05294C5.9444 8.13885 5.92115 8.23256 5.9179 8.32802C5.91465 8.42348 5.93148 8.51855 5.96728 8.6071C6.00309 8.69565 6.05708 8.77569 6.12577 8.84206C6.19446 8.90843 6.27632 8.95964 6.36604 8.99238C6.45577 9.02513 6.55137 9.03867 6.64666 9.03214C6.74195 9.02561 6.8348 8.99916 6.91923 8.95448C7.00365 8.90981 7.07775 8.84792 7.13675 8.7728L9.71225 5.55005C9.75706 5.49396 9.77961 5.42332 9.7756 5.35165C9.77159 5.27997 9.74129 5.21229 9.6905 5.16155V5.1623Z" fill="#8D99AE"/>
<path id="Vector_2" fill-rule="evenodd" clip-rule="evenodd" d="M0.500004 8.3468C0.500788 7.47365 0.692134 6.61119 1.06068 5.81964C1.42923 5.02808 1.9661 4.3265 2.63382 3.76387C3.30153 3.20125 4.084 2.79113 4.92659 2.56216C5.76918 2.33319 6.6516 2.29088 7.51223 2.43819C8.37287 2.58549 9.19098 2.91886 9.90946 3.41502C10.6279 3.91119 11.2295 4.55818 11.6721 5.31085C12.1147 6.06351 12.3876 6.90371 12.472 7.77277C12.5563 8.64184 12.4499 9.51884 12.1603 10.3426C11.8288 11.2823 10.7765 11.5441 9.96125 11.2801C8.98175 10.9628 7.60625 10.5968 6.5 10.5968C5.3945 10.5968 4.0175 10.9628 3.03875 11.2801C2.2235 11.5441 1.17125 11.2823 0.839754 10.3426C0.61411 9.70139 0.49922 9.02651 0.500004 8.3468ZM6.5 3.0968C5.66028 3.09658 4.83276 3.2978 4.08689 3.68355C3.34101 4.0693 2.69856 4.62834 2.21343 5.31375C1.7283 5.99916 1.41466 6.79094 1.29883 7.62263C1.18301 8.45433 1.26837 9.30167 1.54775 10.0936C1.7 10.5248 2.24 10.7506 2.80775 10.5661C3.79775 10.2466 5.2685 9.8468 6.5 9.8468C7.7315 9.8468 9.203 10.2458 10.1923 10.5668C10.76 10.7506 11.3 10.5248 11.4523 10.0936C11.7316 9.30167 11.817 8.45433 11.7012 7.62263C11.5853 6.79094 11.2717 5.99916 10.7866 5.31375C10.3015 4.62834 9.65899 4.0693 8.91312 3.68355C8.16725 3.2978 7.33973 3.09658 6.5 3.0968Z" fill="#8D99AE"/>
</g>
</g>
<defs>
<clipPath id="clip0_12_855">
<rect width="12" height="12" fill="white" transform="translate(0.5 0.846802)"/>
</clipPath>
</defs>
</svg>
