<svg width="152" height="152" viewBox="0 0 152 152" fill="none" xmlns="http://www.w3.org/2000/svg">
<g clip-path="url(#clip0_145_1765)">
<path d="M76 150C116.869 150 150 116.869 150 76C150 35.1309 116.869 2 76 2C35.1309 2 2 35.1309 2 76C2 116.869 35.1309 150 76 150Z" stroke="url(#paint0_radial_145_1765)" stroke-width="4"/>
</g>
<path d="M76.0001 108C58.3554 108 44 93.6446 44 76.0001C44 58.3554 58.3554 44 76.0001 44C93.6446 44 108 58.3554 108 76.0001C108 93.6446 93.6446 108 76.0001 108Z" fill="#7FD482"/>
<path d="M91.4327 65.7887C90.6814 65.0524 88.9649 64.6542 88.2251 65.3955L72.1713 81.3051L63.6102 72.8203C62.8704 72.0662 61.3304 72.7135 60.5792 73.4416C59.8213 74.1732 59.805 75.3708 60.5432 76.1184L70.7439 86.4336C70.7472 86.4384 70.7537 86.4384 70.7584 86.4433C70.7634 86.4498 70.7634 86.453 70.77 86.4595C70.8876 86.576 71.0427 86.6505 71.1815 86.7298C71.2566 86.7719 71.3155 86.8349 71.3906 86.8625C71.6192 86.9579 71.8675 87 72.1124 87C72.3541 87 72.5992 86.9514 72.8311 86.8625C72.9046 86.8302 72.9584 86.767 73.0335 86.7345C73.1723 86.6553 73.3275 86.5857 73.4451 86.4643C73.4516 86.4595 73.4516 86.4531 73.4549 86.4498C73.4614 86.4433 73.4665 86.4433 73.4713 86.4385L91.449 68.4556C92.1921 67.7193 92.1806 66.525 91.4327 65.7887Z" fill="#2F3146"/>
<defs>
<radialGradient id="paint0_radial_145_1765" cx="0" cy="0" r="1" gradientUnits="userSpaceOnUse" gradientTransform="translate(96.0256 50.8933) rotate(-149.676) scale(108.928)">
<stop offset="0.504001" stop-color="#7FD482"/>
<stop offset="1" stop-color="white" stop-opacity="0"/>
</radialGradient>
<clipPath id="clip0_145_1765">
<rect width="152" height="152" fill="white"/>
</clipPath>
</defs>
</svg>
