<svg width="53" height="52" viewBox="0 0 53 52" fill="none" xmlns="http://www.w3.org/2000/svg">
<g id="Group 7308">
<rect id="Rectangle 3269" width="53" height="52" rx="18" fill="#2B2D42"/>
<path id="Vector" d="M33.1695 25.5716C33.7568 24.9843 34.709 24.9843 35.2963 25.5716C35.8836 26.1589 35.8836 27.1111 35.2963 27.6984L27.777 35.2178C27.1897 35.8051 26.2375 35.8051 25.6502 35.2178L18.1308 27.6984C17.5435 27.1111 17.5435 26.1589 18.1308 25.5716C18.7181 24.9843 19.6703 24.9843 20.2576 25.5716L25.2097 30.5237L25.2097 17.6118C25.2097 16.7812 25.883 16.1079 26.7136 16.1079C27.5441 16.1079 28.2174 16.7812 28.2174 17.6118L28.2174 30.5237L33.1695 25.5716Z" fill="#EDF2F4"/>
</g>
</svg>
