<svg xmlns="http://www.w3.org/2000/svg" width="24" height="24" viewBox="0 0 24 24" fill="none">
    <g clip-path="url(#clip0_234_425)">
        <path d="M12 24C8.65 24 5.8125 22.8375 3.4875 20.5125C1.1625 18.1875 0 15.35 0 12C0 8.65 1.1625 5.8125 3.4875 3.4875C5.8125 1.1625 8.65 0 12 0C15.35 0 18.1875 1.1625 20.5125 3.4875C22.8375 5.8125 24 8.65 24 12C24 15.35 22.8375 18.1875 20.5125 20.5125C18.1875 22.8375 15.35 24 12 24ZM12 17.25C12.425 17.25 12.7815 17.1065 13.0695 16.8195C13.3575 16.5325 13.501 16.176 13.5 15.75V9.75H15.375C15.7 9.75 15.9685 9.6435 16.1805 9.4305C16.3925 9.2175 16.499 8.949 16.5 8.625C16.5 8.3 16.3935 8.0315 16.1805 7.8195C15.9675 7.6075 15.699 7.501 15.375 7.5H8.625C8.3 7.5 8.0315 7.6065 7.8195 7.8195C7.6075 8.0325 7.501 8.301 7.5 8.625C7.5 8.95 7.6065 9.2185 7.8195 9.4305C8.0325 9.6425 8.301 9.749 8.625 9.75H10.5V15.75C10.5 16.175 10.644 16.5315 10.932 16.8195C11.22 17.1075 11.576 17.251 12 17.25Z" fill="#1EE3CF"/>
    </g>
    <defs>
        <clipPath id="clip0_234_425">
            <rect width="24" height="24" fill="white"/>
        </clipPath>
    </defs>
</svg>