<svg width="16" height="16" viewBox="0 0 16 16" fill="none" xmlns="http://www.w3.org/2000/svg">
<g id="&#230;&#143;&#144;&#228;&#186;&#164;&#230;&#136;&#144;&#229;&#138;&#159;">
<path id="&#229;&#189;&#162;&#231;&#138;&#182;" d="M8.00002 16C3.58885 16 0 12.4111 0 8.00002C0 3.58884 3.58885 0 8.00002 0C12.4111 0 16 3.58885 16 8.00002C16 12.4111 12.4111 16 8.00002 16Z" fill="#03A66D"/>
<path id="&#232;&#183;&#175;&#229;&#190;&#132;" d="M12.6385 4.91838C12.4139 4.69622 11.9007 4.5761 11.6795 4.79974L6.8797 9.60001L4.32011 7.03998C4.09892 6.81243 3.63848 7.00775 3.41388 7.22744C3.1873 7.44818 3.18243 7.80951 3.40313 8.03509L6.45295 11.1474C6.45393 11.1489 6.45588 11.1489 6.45729 11.1503C6.45879 11.1523 6.45879 11.1533 6.46076 11.1552C6.4959 11.1904 6.54229 11.2128 6.58379 11.2368C6.60623 11.2495 6.62384 11.2685 6.64631 11.2768C6.71465 11.3056 6.78887 11.3183 6.86211 11.3183C6.93437 11.3183 7.00764 11.3036 7.07698 11.2768C7.09895 11.2671 7.11505 11.248 7.13748 11.2382C7.17898 11.2143 7.22539 11.1933 7.26055 11.1567C7.2625 11.1552 7.2625 11.1533 7.26348 11.1523C7.26542 11.1503 7.26694 11.1503 7.26838 11.1489L12.6434 5.72306C12.8655 5.50089 12.8621 5.14054 12.6385 4.91838Z" fill="white"/>
</g>
</svg>
