<svg width="109" height="18" viewBox="0 0 109 18" fill="none" xmlns="http://www.w3.org/2000/svg">
<path d="M0.2 -9.53674e-07H8.2C9.50667 -9.53674e-07 10.4667 0.299999 11.08 0.899999C11.6933 1.48667 12 2.38667 12 3.6C12 4.4 11.8267 5.05333 11.48 5.56C11.1333 6.05333 10.7067 6.4 10.2 6.6C11.28 6.89333 12.0133 7.61333 12.4 8.76C12.5333 9.17333 12.6 9.65333 12.6 10.2C12.6 11.5067 12.2933 12.4667 11.68 13.08C11.0667 13.6933 10.1067 14 8.8 14H0.2V-9.53674e-07ZM9 9.6C9 8.8 8.6 8.4 7.8 8.4H3.8V11.2H7.8C8.6 11.2 9 10.8 9 10V9.6ZM8.4 4C8.4 3.2 8 2.8 7.2 2.8H3.8V5.6H7.2C8 5.6 8.4 5.2 8.4 4.4V4ZM18.3992 11.4C19.1059 11.4 19.9059 11.2667 20.7992 11V9.8H17.8992C17.6992 9.8 17.5326 9.86667 17.3992 10C17.2659 10.1333 17.1992 10.3 17.1992 10.5V10.7C17.1992 10.9 17.2659 11.0667 17.3992 11.2C17.5326 11.3333 17.6992 11.4 17.8992 11.4H18.3992ZM14.6992 3.6C17.1392 3.33333 19.3392 3.2 21.2992 3.2C22.2059 3.2 22.9326 3.47333 23.4792 4.02C24.0259 4.56667 24.2992 5.29333 24.2992 6.2V14H21.1992L20.9992 13C20.3726 13.4133 19.7259 13.72 19.0592 13.92C18.4059 14.1067 17.8526 14.2 17.3992 14.2H16.6992C15.7926 14.2 15.0659 13.9267 14.5192 13.38C13.9726 12.8333 13.6992 12.1067 13.6992 11.2V10.3C13.6992 9.39333 13.9726 8.66667 14.5192 8.12C15.0659 7.57333 15.7926 7.3 16.6992 7.3H20.7992V6.5C20.7992 6.3 20.7326 6.13333 20.5992 6C20.4659 5.86667 20.2992 5.8 20.0992 5.8C19.2326 5.8 18.2726 5.84 17.2192 5.92C16.1792 6 15.3392 6.06 14.6992 6.1V3.6ZM25.6938 11.2C28.4004 11.4 30.5338 11.5 32.0938 11.5C32.2938 11.5 32.4604 11.4333 32.5938 11.3C32.7271 11.1667 32.7938 11 32.7938 10.8V10.1H28.4938C27.5871 10.1 26.8604 9.82667 26.3138 9.28C25.7671 8.73333 25.4938 8.00667 25.4938 7.1V6.4C25.4938 5.49333 25.7671 4.76667 26.3138 4.22C26.8604 3.67333 27.5871 3.4 28.4938 3.4H35.2938V6H29.6938C29.4938 6 29.3271 6.06667 29.1938 6.2C29.0604 6.33333 28.9938 6.5 28.9938 6.7C28.9938 6.9 29.0604 7.06667 29.1938 7.2C29.3271 7.33333 29.4938 7.4 29.6938 7.4H33.2938C34.2004 7.4 34.9271 7.67333 35.4738 8.22C36.0204 8.76667 36.2938 9.49333 36.2938 10.4V11.2C36.2938 12.1067 36.0204 12.8333 35.4738 13.38C34.9271 13.9267 34.2004 14.2 33.2938 14.2C30.9338 14.2 28.4004 14.0667 25.6938 13.8V11.2ZM41.7953 5.7C41.262 5.7 40.9953 5.96667 40.9953 6.5V7.6H44.3953V6.5C44.3953 5.96667 44.1286 5.7 43.5953 5.7H41.7953ZM47.4953 13.8C44.922 14.0667 42.5886 14.2 40.4953 14.2C39.5886 14.2 38.862 13.9267 38.3153 13.38C37.7686 12.8333 37.4953 12.1067 37.4953 11.2V6.4C37.4953 5.4 37.7753 4.62 38.3353 4.06C38.9086 3.48667 39.6953 3.2 40.6953 3.2H44.6953C45.6953 3.2 46.4753 3.48667 47.0353 4.06C47.6086 4.62 47.8953 5.4 47.8953 6.4V10.1H40.9953V10.9C40.9953 11.1 41.062 11.2667 41.1953 11.4C41.3286 11.5333 41.4953 11.6 41.6953 11.6C43.0153 11.6 44.9486 11.5 47.4953 11.3V13.8ZM55.4636 11.1C59.1169 11.3 61.5903 11.4 62.8836 11.4C63.1903 11.4 63.4303 11.3133 63.6036 11.14C63.7903 10.9533 63.8836 10.7067 63.8836 10.4V8.6H59.2836C57.8836 8.6 56.8636 8.28667 56.2236 7.66C55.5969 7.02 55.2836 6 55.2836 4.6V4C55.2836 2.6 55.5969 1.58667 56.2236 0.96C56.8636 0.319999 57.8836 -9.53674e-07 59.2836 -9.53674e-07H66.3036V2.8H60.0836C59.2836 2.8 58.8836 3.2 58.8836 4V4.4C58.8836 5.2 59.2836 5.6 60.0836 5.6H63.6836C64.9903 5.6 65.9503 5.90667 66.5636 6.52C67.1769 7.13333 67.4836 8.09333 67.4836 9.4V10.4C67.4836 11.7067 67.1769 12.6667 66.5636 13.28C65.9503 13.8933 64.9903 14.2 63.6836 14.2C63.0036 14.2 62.2836 14.1867 61.5236 14.16L59.6836 14.08C58.3236 14.0133 56.9169 13.92 55.4636 13.8V11.1ZM80.282 9.8L82.082 3.4H85.882L82.582 14H78.882L76.882 7.6L74.882 14H71.182L67.882 3.4H71.682L73.482 9.8L75.282 3.4H78.482L80.282 9.8ZM90.4891 11.4C91.1957 11.4 91.9957 11.2667 92.8891 11V9.8H89.9891C89.7891 9.8 89.6224 9.86667 89.4891 10C89.3557 10.1333 89.2891 10.3 89.2891 10.5V10.7C89.2891 10.9 89.3557 11.0667 89.4891 11.2C89.6224 11.3333 89.7891 11.4 89.9891 11.4H90.4891ZM86.7891 3.6C89.2291 3.33333 91.4291 3.2 93.3891 3.2C94.2957 3.2 95.0224 3.47333 95.5691 4.02C96.1157 4.56667 96.3891 5.29333 96.3891 6.2V14H93.2891L93.0891 13C92.4624 13.4133 91.8157 13.72 91.1491 13.92C90.4957 14.1067 89.9424 14.2 89.4891 14.2H88.7891C87.8824 14.2 87.1557 13.9267 86.6091 13.38C86.0624 12.8333 85.7891 12.1067 85.7891 11.2V10.3C85.7891 9.39333 86.0624 8.66667 86.6091 8.12C87.1557 7.57333 87.8824 7.3 88.7891 7.3H92.8891V6.5C92.8891 6.3 92.8224 6.13333 92.6891 6C92.5557 5.86667 92.3891 5.8 92.1891 5.8C91.3224 5.8 90.3624 5.84 89.3091 5.92C88.2691 6 87.4291 6.06 86.7891 6.1V3.6ZM104.084 6.1C103.377 6.1 102.577 6.23333 101.684 6.5V11.3H104.684C105.217 11.3 105.484 11.0333 105.484 10.5V6.8C105.484 6.6 105.417 6.43333 105.284 6.3C105.15 6.16667 104.984 6.1 104.784 6.1H104.084ZM101.684 14V17.4H98.1836V3.4H101.284L101.484 4.4C102.11 3.98667 102.75 3.68667 103.404 3.5C104.07 3.3 104.63 3.2 105.084 3.2H105.984C106.89 3.2 107.617 3.47333 108.164 4.02C108.71 4.56667 108.984 5.29333 108.984 6.2V10.8C108.984 11.8 108.697 12.5867 108.124 13.16C107.564 13.72 106.784 14 105.784 14H101.684Z" fill="white"/>
</svg>
