<svg width="41" height="33" viewBox="0 0 41 33" fill="none" xmlns="http://www.w3.org/2000/svg">
<path d="M36.9698 1.33596V28.7124C36.9698 28.9938 36.8573 29.2527 36.6546 29.4553L33.7729 32.337C33.5703 32.5397 33.3114 32.6522 33.03 32.6522H5.65356C5.02318 32.6522 4.50537 32.1344 4.50537 31.504V4.12763C4.50537 3.84622 4.61794 3.58731 4.82056 3.38469L7.70229 0.502963C7.90491 0.300342 8.16381 0.187775 8.44523 0.187775H35.8216C36.452 0.187775 36.9698 0.705585 36.9698 1.33596Z" fill="#EF233C"/>
<path d="M40.7972 3.84622L38.681 5.4109L37.2514 6.48029C37.1613 6.53658 37.0713 6.5816 36.9699 6.61537C36.8574 6.6604 36.7448 6.68292 36.621 6.68292H12.0588C11.4734 6.68292 11.0006 7.1557 11.0006 7.74105V12.1199C11.0006 12.7053 11.4734 13.1781 12.0588 13.1781H33.4353L36.9362 16.6789V16.6564L36.9699 16.6789V28.7124C36.9699 28.9938 36.8574 29.2527 36.6548 29.4553L33.773 32.337C33.5704 32.5397 33.3115 32.6522 33.0301 32.6522H4.85446C4.62932 32.6522 4.41545 32.5734 4.22408 32.4383L0.678207 29.8155C0.408045 29.6129 0.408045 29.1964 0.678207 28.9938L2.79447 27.4291L4.22408 26.3597C4.31414 26.3034 4.40419 26.2584 4.5055 26.2246C4.61807 26.1796 4.73063 26.1571 4.85446 26.1571H29.4167C30.002 26.1571 30.4748 25.6843 30.4748 25.0989V20.7201C30.4748 20.1347 30.002 19.6619 29.4167 19.6619H8.5129C8.23148 19.6619 7.96132 19.5494 7.76996 19.358L4.82069 16.4087C4.61807 16.2061 4.5055 15.9472 4.5055 15.6658V4.12763C4.5055 3.84622 4.61807 3.58731 4.82069 3.38469L7.70241 0.502963C7.90504 0.300342 8.16394 0.187775 8.44536 0.187775H36.621C36.8461 0.187775 37.06 0.266572 37.2514 0.401653L40.7972 3.02447C41.0674 3.2271 41.0674 3.64359 40.7972 3.84622Z" fill="white"/>
</svg>
